<svg xmlns="http://www.w3.org/2000/svg" viewBox="0 0 32 32">
  <path fill="#FFCC00" d="M16,2h2v1h-2z M16,3h2v1h-2z M11,4h2v1h-2z M16,4h2v1h-2z M21,4h2v1h-2z M11,5h2v1h-2z M16,5h2v1h-2z M21,5h2v1h-2z M11,6h2v1h-2z M16,6h2v1h-2z M21,6h2v1h-2z M11,7h2v1h-2z M16,7h2v1h-2z M21,7h2v1h-2z M6,8h2v1h-2z M11,8h2v1h-2z M16,8h2v1h-2z M21,8h2v1h-2z M6,9h2v1h-2z M11,9h2v1h-2z M16,9h2v1h-2z M21,9h2v1h-2z M6,10h2v1h-2z M11,10h2v1h-2z M16,10h2v1h-2z M21,10h2v1h-2z M6,11h2v1h-2z M11,11h2v1h-2z M16,11h2v1h-2z M21,11h2v1h-2z M6,12h2v1h-2z M11,12h2v1h-2z M16,12h2v1h-2z M21,12h2v1h-2z M26,12h2v1h-2z M6,13h2v1h-2z M11,13h3v1h-3z M16,13h3v1h-3z M21,13h2v1h-2z M26,13h2v1h-2z M6,14h2v1h-2z M11,14h12v1h-12z M26,14h2v1h-2z M6,15h3v1h-3z M11,15h12v1h-12z M26,15h2v1h-2z M6,16h17v1h-17z M26,16h2v1h-2z M6,17h17v1h-17z M26,17h2v1h-2z M6,18h17v1h-17z M26,18h2v1h-2z M6,19h18v1h-18z M26,19h2v1h-2z M6,20h22v1h-22z M6,21h22v1h-22z M6,22h22v1h-22z M7,23h20v1h-20z M8,24h18v1h-18z M8,25h18v1h-18z M9,26h16v1h-16z M11,27h13v1h-13z M12,28h10v1h-10z M15,29h4v1h-4z"/>
</svg>